<svg width="50" height="51" viewBox="0 0 50 51" fill="none" xmlns="http://www.w3.org/2000/svg">
<path d="M8.33331 13C8.33331 12.4475 8.55281 11.9176 8.94351 11.5269C9.33421 11.1362 9.86411 10.9167 10.4166 10.9167H39.5833C40.1358 10.9167 40.6658 11.1362 41.0565 11.5269C41.4472 11.9176 41.6666 12.4475 41.6666 13C41.6666 13.5526 41.4472 14.0825 41.0565 14.4732C40.6658 14.8639 40.1358 15.0834 39.5833 15.0834H10.4166C9.86411 15.0834 9.33421 14.8639 8.94351 14.4732C8.55281 14.0825 8.33331 13.5526 8.33331 13ZM8.33331 38C8.33331 37.4475 8.55281 36.9176 8.94351 36.5269C9.33421 36.1362 9.86411 35.9167 10.4166 35.9167H39.5833C40.1358 35.9167 40.6658 36.1362 41.0565 36.5269C41.4472 36.9176 41.6666 37.4475 41.6666 38C41.6666 38.5526 41.4472 39.0825 41.0565 39.4732C40.6658 39.8639 40.1358 40.0834 39.5833 40.0834H10.4166C9.86411 40.0834 9.33421 39.8639 8.94351 39.4732C8.55281 39.0825 8.33331 38.5526 8.33331 38ZM22.9166 23.4167C22.3641 23.4167 21.8342 23.6362 21.4435 24.0269C21.0528 24.4176 20.8333 24.9475 20.8333 25.5C20.8333 26.0526 21.0528 26.5825 21.4435 26.9732C21.8342 27.3639 22.3641 27.5834 22.9166 27.5834H39.5833C40.1358 27.5834 40.6658 27.3639 41.0565 26.9732C41.4472 26.5825 41.6666 26.0526 41.6666 25.5C41.6666 24.9475 41.4472 24.4176 41.0565 24.0269C40.6658 23.6362 40.1358 23.4167 39.5833 23.4167H22.9166Z" fill="white"/>
</svg>
