<svg width="60" height="56" viewBox="0 0 60 56" fill="none" xmlns="http://www.w3.org/2000/svg">
<path d="M10 23.465H23C23.553 23.465 24 23.017 24 22.465C24 21.913 23.553 21.465 23 21.465H10C9.447 21.465 9 21.913 9 22.465C9 23.017 9.447 23.465 10 23.465Z" fill="white"/>
<path d="M36 27.465H10C9.447 27.465 9 27.913 9 28.465C9 29.017 9.447 29.465 10 29.465H36C36.553 29.465 37 29.017 37 28.465C37 27.913 36.553 27.465 36 27.465Z" fill="white"/>
<path d="M36 33.465H10C9.447 33.465 9 33.913 9 34.465C9 35.017 9.447 35.465 10 35.465H36C36.553 35.465 37 35.017 37 34.465C37 33.913 36.553 33.465 36 33.465Z" fill="white"/>
<path d="M54.072 0.534997L19.93 0.464996C16.66 0.464996 14 3.125 14 6.395V11.519L5.93 11.536C2.66 11.536 0 14.196 0 17.466V38.607C0 41.877 2.66 44.536 5.93 44.536H12V54.536C12 54.949 12.254 55.32 12.64 55.469C12.757 55.514 12.879 55.536 13 55.536C13.276 55.536 13.547 55.421 13.74 55.209L23.444 44.534L40.07 44.466C43.34 44.466 46 41.806 46 38.537V38.424L51.26 44.21C51.453 44.422 51.724 44.537 52 44.537C52.121 44.537 52.243 44.515 52.36 44.47C52.746 44.321 53 43.95 53 43.537V33.537H54.07C57.34 33.537 60 30.877 60 27.608V6.465C60 3.196 57.341 0.535997 54.072 0.534997ZM44 38.536C44 40.703 42.237 42.465 40.066 42.465L22.996 42.535C22.716 42.536 22.448 42.655 22.26 42.862L14 51.949V43.535C14 42.983 13.553 42.535 13 42.535H5.93C3.763 42.535 2 40.772 2 38.606V17.465C2 15.298 3.763 13.535 5.932 13.535L15 13.516C15.001 13.516 15.001 13.516 15.002 13.516L40.07 13.464C42.237 13.464 44 15.227 44 17.394V35.835V38.536ZM58 27.606C58 29.773 56.237 31.535 54.07 31.535H52C51.447 31.535 51 31.983 51 32.535V40.949L46 35.449V17.395C46 14.125 43.34 11.465 40.068 11.465L16 11.514V6.394C16 4.227 17.763 2.464 19.928 2.464L54.069 2.534C54.07 2.534 54.07 2.534 54.071 2.534C56.238 2.534 58.001 4.297 58.001 6.464V27.606H58Z" fill="white"/>
</svg>
